<svg width="16" height="16" viewBox="0 0 16 16" fill="none" xmlns="http://www.w3.org/2000/svg">
<path d="M3.78973 5.94528C3.62832 5.85681 3.4257 5.91597 3.3372 6.07744L3.33051 6.08956C3.24204 6.251 3.30117 6.45362 3.46267 6.54209C3.51351 6.56997 3.56842 6.58316 3.62257 6.58316C3.74038 6.58316 3.85457 6.52056 3.9152 6.40994L3.92188 6.39781C4.01035 6.23637 3.95116 6.03375 3.78973 5.94528Z" fill="#667580"/>
<path d="M14.4571 7.0051C13.9329 4.96485 12.4632 3.26881 10.4802 2.47625C10.1376 1.4065 9.13038 0.666595 8.00003 0.666595C6.84078 0.666595 5.85644 1.42822 5.52006 2.47722C4.32572 2.9556 3.30294 3.7626 2.55466 4.81981C2.08194 5.48775 1.74113 6.22613 1.54156 7.00519C0.680844 7.06947 0 7.78981 0 8.66666C0 9.544 0.681531 10.2647 1.54294 10.3283C2.28316 13.203 4.89744 15.3334 8.00003 15.3334C11.1026 15.3334 13.7168 13.203 14.457 10.3283C15.3184 10.2647 16 9.544 16 8.6666C16 7.78935 15.3185 7.06872 14.4571 7.0051ZM0.666719 8.6666C0.666719 8.20663 0.979 7.81822 1.40262 7.7021C1.374 7.90047 1.35406 8.10078 1.34325 8.30263C1.34306 8.30544 1.34297 8.30819 1.34281 8.311C1.34088 8.34775 1.33916 8.38453 1.33784 8.42138C1.33731 8.43535 1.33703 8.44931 1.33666 8.46328C1.33584 8.48972 1.335 8.51613 1.3345 8.5426C1.33378 8.58394 1.33334 8.62528 1.33334 8.66663C1.33334 8.7171 1.33412 8.76753 1.33531 8.81803C1.33566 8.83385 1.33609 8.8496 1.33659 8.86535C1.33766 8.90206 1.33909 8.93878 1.34078 8.97547C1.34147 8.99103 1.34209 9.00663 1.34288 9.02222C1.34531 9.06803 1.34825 9.11378 1.35159 9.15953C1.35319 9.18103 1.35506 9.20241 1.35681 9.22385C1.35909 9.25097 1.36147 9.27813 1.36406 9.30522C1.36634 9.3291 1.36869 9.353 1.37122 9.37678C1.37416 9.40466 1.3775 9.4325 1.38078 9.46031C1.38513 9.49675 1.38978 9.5331 1.39469 9.56931C1.3975 9.59006 1.40009 9.61078 1.40309 9.63141C0.979219 9.51544 0.666719 9.12681 0.666719 8.6666ZM8.00003 1.33331C8.66025 1.33331 9.26409 1.67238 9.61653 2.2031C9.60991 2.20303 9.60325 2.203 9.59659 2.203C9.59228 2.203 9.58809 2.20331 9.58378 2.20335C9.58212 2.20341 9.58044 2.20338 9.57875 2.20347C8.54084 2.21313 7.69947 3.06006 7.69947 4.10016C7.69947 4.50491 7.82663 4.88972 8.05509 5.20722C8.03675 5.20772 8.01834 5.208 8.00003 5.208C6.93181 5.208 6.06275 4.33894 6.06275 3.27072C6.06272 2.20241 6.93178 1.33331 8.00003 1.33331ZM13.9978 8.82456C13.9977 8.83269 13.9972 8.84075 13.9969 8.84888C13.9956 8.89353 13.9939 8.93822 13.9916 8.98288C13.9912 8.99085 13.9906 8.99881 13.9901 9.00678C13.9876 9.05138 13.9847 9.096 13.9812 9.14056C13.9806 9.14956 13.9796 9.1585 13.9788 9.1675C13.9753 9.21056 13.9714 9.2536 13.9669 9.29656C13.9657 9.30853 13.9641 9.32044 13.9628 9.33238C13.9584 9.37175 13.9539 9.41106 13.9487 9.45035C13.9466 9.46678 13.9442 9.48313 13.9418 9.4995C13.9372 9.53347 13.9323 9.56741 13.927 9.60125C13.9235 9.62328 13.9198 9.64516 13.9161 9.66713C13.9115 9.69453 13.9069 9.72191 13.9019 9.74922C13.8968 9.777 13.8914 9.80463 13.8859 9.83222C13.8819 9.85291 13.8778 9.87363 13.8735 9.89428C13.3054 12.6159 10.8877 14.6667 7.99997 14.6667C5.11009 14.6667 2.69097 12.613 2.12516 9.88841C2.12003 9.86372 2.11531 9.83888 2.11053 9.81406C2.10591 9.79038 2.10119 9.76669 2.09687 9.74291C2.09075 9.70922 2.08516 9.67538 2.07959 9.64156C2.07706 9.62603 2.07428 9.61053 2.07188 9.59497C2.06525 9.55216 2.05919 9.50928 2.05344 9.46631C2.05247 9.45903 2.05128 9.45178 2.05037 9.4445C2.04381 9.39391 2.03781 9.34316 2.03253 9.29241C2.03253 9.29219 2.03247 9.29191 2.03247 9.29169C2.01088 9.08419 1.99997 8.87541 1.99997 8.66672C1.99997 8.61963 2.00075 8.5725 2.00187 8.52541C2.00228 8.50994 2.00275 8.4945 2.00325 8.47906C2.00422 8.44738 2.00553 8.41569 2.00703 8.384C2.00787 8.36556 2.00869 8.3471 2.00972 8.32869C2.01131 8.30063 2.01331 8.27256 2.01528 8.24453C2.01875 8.1961 2.02266 8.14775 2.02725 8.09953C2.02778 8.094 2.02822 8.08847 2.02875 8.08297C2.23362 6.00828 3.51853 4.16716 5.39628 3.26022C5.39628 3.26375 5.39603 3.26722 5.39603 3.27075C5.39603 3.50938 5.42891 3.74031 5.48931 3.96C4.891 4.2786 4.36559 4.7031 3.92519 5.225C3.80644 5.36572 3.82428 5.57603 3.965 5.69472C4.02756 5.74753 4.10387 5.77328 4.17981 5.77328C4.27462 5.77328 4.36881 5.73303 4.43472 5.65491C4.80675 5.21403 5.24803 4.85272 5.74909 4.57747C6.20072 5.35238 7.04028 5.87472 8.00003 5.87472C8.29434 5.87472 8.58353 5.82578 8.85941 5.72931C8.97956 5.68728 9.06531 5.5805 9.08037 5.45406C9.09544 5.32766 9.03716 5.20369 8.93022 5.13466C8.57703 4.9065 8.36616 4.51981 8.36616 4.10022C8.36616 3.4355 8.89606 2.8926 9.55562 2.87081C11.7698 3.46322 13.4165 5.25356 13.8728 7.43563C13.8803 7.47172 13.8876 7.50788 13.8945 7.54413C13.898 7.56306 13.9013 7.58213 13.9048 7.60113C13.9101 7.63078 13.9153 7.6605 13.9202 7.69025C13.9231 7.70806 13.9259 7.72591 13.9287 7.74378C13.9338 7.77725 13.9388 7.81075 13.9433 7.84431C13.9453 7.85828 13.9473 7.87225 13.9491 7.88625C13.9618 7.98369 13.9722 8.0815 13.9801 8.1795C13.981 8.19072 13.9817 8.20203 13.9826 8.21331C13.9855 8.251 13.9879 8.28875 13.9901 8.3265C13.9909 8.34116 13.9917 8.35588 13.9924 8.37056C13.9942 8.4065 13.9956 8.44247 13.9967 8.47841C13.9972 8.49231 13.9977 8.50622 13.998 8.5201C13.9992 8.56897 14 8.61785 14 8.66666C13.9999 8.71931 13.9992 8.77197 13.9978 8.82456ZM14.5969 9.63141C14.6006 9.60622 14.6039 9.58091 14.6073 9.55563C14.6108 9.52894 14.6142 9.50219 14.6175 9.47538C14.6216 9.44175 14.6255 9.40806 14.6291 9.37438C14.6315 9.35231 14.6336 9.33019 14.6357 9.30803C14.6385 9.279 14.6411 9.24997 14.6435 9.22094C14.6451 9.20081 14.6469 9.18075 14.6484 9.16056C14.6518 9.11428 14.6548 9.068 14.6572 9.02163C14.6581 9.00669 14.6586 8.99172 14.6593 8.97675C14.661 8.93947 14.6624 8.90222 14.6635 8.86491C14.664 8.84938 14.6644 8.83381 14.6648 8.81825C14.6659 8.76772 14.6667 8.71719 14.6667 8.6666C14.6667 8.62263 14.6662 8.57866 14.6653 8.53469C14.665 8.51872 14.6645 8.50278 14.664 8.48681C14.6633 8.45922 14.6625 8.43163 14.6614 8.404C14.6607 8.38438 14.6597 8.36475 14.6588 8.34516C14.6576 8.32141 14.6564 8.29772 14.655 8.27403C14.6538 8.25272 14.6524 8.23147 14.651 8.21022C14.6495 8.18835 14.6478 8.16653 14.6461 8.14469C14.6444 8.12253 14.6427 8.10035 14.6407 8.07825C14.6388 8.05688 14.6367 8.0356 14.6346 8.01425C14.6325 7.99228 14.6304 7.97028 14.6281 7.94831C14.6254 7.9235 14.6224 7.89881 14.6194 7.87403C14.6162 7.8465 14.6128 7.81903 14.6092 7.7916C14.6052 7.76166 14.6013 7.73172 14.597 7.70188C15.0209 7.81781 15.3333 8.20638 15.3333 8.66653C15.3333 9.12688 15.0208 9.51544 14.5969 9.63141Z" fill="#667580"/>
<path d="M6.81425 9.05249C6.65832 8.47062 6.12875 8.06421 5.52634 8.06421C4.92403 8.06421 4.3944 8.47062 4.23843 9.05249C4.19078 9.23033 4.29631 9.41312 4.47412 9.46077C4.652 9.50837 4.83475 9.4029 4.8824 9.22508C4.9604 8.93412 5.22519 8.7309 5.52631 8.7309C5.82747 8.7309 6.09225 8.93412 6.17022 9.22508C6.21013 9.37399 6.34485 9.47221 6.492 9.47221C6.52053 9.47221 6.5496 9.46852 6.5785 9.46077C6.75641 9.41312 6.86191 9.23033 6.81425 9.05249Z" fill="#667580"/>
<path d="M10.4738 8.06421C9.8714 8.06421 9.34178 8.47065 9.18587 9.05252C9.13824 9.23037 9.24378 9.41315 9.42162 9.46077C9.5994 9.50846 9.78221 9.40287 9.82984 9.22505C9.9078 8.93412 10.1726 8.7309 10.4738 8.7309C10.7749 8.7309 11.0397 8.93412 11.1177 9.22508C11.1576 9.37399 11.2922 9.47221 11.4395 9.47221C11.468 9.47221 11.4971 9.46852 11.526 9.46077C11.7038 9.41312 11.8093 9.2303 11.7616 9.05249C11.6057 8.47065 11.0761 8.06421 10.4738 8.06421Z" fill="#667580"/>
<path d="M9.05225 11.3913C8.87447 11.3437 8.69163 11.4491 8.64397 11.627C8.56597 11.918 8.30119 12.1212 8.00007 12.1212C7.69888 12.1212 7.4341 11.918 7.35616 11.627C7.3085 11.4492 7.12572 11.3436 6.94788 11.3913C6.77003 11.439 6.66453 11.6217 6.71219 11.7996C6.86813 12.3815 7.39769 12.7879 8.0001 12.7879C8.60244 12.7879 9.13207 12.3815 9.288 11.7996C9.3356 11.6218 9.23007 11.439 9.05225 11.3913Z" fill="#667580"/>
</svg>
