<svg width="16" height="16" viewBox="0 0 16 16" fill="none" xmlns="http://www.w3.org/2000/svg">
<path d="M9.76221 8.00001L15.7444 2.01756C15.9089 1.85288 15.9997 1.63317 16 1.39889C16 1.16449 15.9092 0.94452 15.7444 0.780097L15.2202 0.255999C15.0553 0.0909254 14.8356 0.000518799 14.6011 0.000518799C14.367 0.000518799 14.1473 0.0909254 13.9824 0.255999L8.00026 6.23805L2.01782 0.255999C1.85327 0.0909254 1.63343 0.000518799 1.39902 0.000518799C1.16488 0.000518799 0.945041 0.0909254 0.780488 0.255999L0.256 0.780097C-0.0853333 1.12143 -0.0853333 1.67662 0.256 2.01756L6.23831 8.00001L0.256 13.9822C0.0913171 14.1471 0.000650406 14.3668 0.000650406 14.6011C0.000650406 14.8354 0.0913171 15.0551 0.256 15.2199L0.780358 15.744C0.944911 15.909 1.16488 15.9995 1.39889 15.9995C1.6333 15.9995 1.85314 15.909 2.01769 15.744L8.00013 9.76183L13.9823 15.744C14.1471 15.909 14.3668 15.9995 14.601 15.9995H14.6012C14.8355 15.9995 15.0552 15.909 15.22 15.744L15.7443 15.2199C15.9088 15.0552 15.9996 14.8354 15.9996 14.6011C15.9996 14.3668 15.9088 14.1471 15.7443 13.9823L9.76221 8.00001Z" fill="#667580" fill-opacity="0.3"/>
</svg>
