<svg height="512" viewBox="0 0 58 58" width="512" xmlns="http://www.w3.org/2000/svg"><g id="Page-1" fill="none" fill-rule="evenodd"><g id="043---Eating-Breakfast" fill-rule="nonzero" transform="translate(0 -1)"><path id="Shape" d="m47.253 50.443 1.657-9.4c-1.655313-1.0804109-2.5085703-3.0425096-2.17-4.99l.53-2.96v-.02l.87-4.91c.0448072-.2620565.1927259-.495242.410703-.6474501.217977-.1522081.4878437-.210752.749297-.1625499.5403351.1023512.9000348.6174767.81 1.16l-.7 3.94 1.97.35.7-3.94c.0418843-.2615198.18763-.4950328.4041626-.647547.2165325-.1525142.4854901-.2110966.7458374-.162453.2631284.0439656.4977814.1912472.6517742.4090906.1539928.2178435.2145578.4881873.1682258.7509094l-.7 3.93 1.97.35.7-3.94c.0426588-.261134.1885842-.4941248.4049064-.6464909.2163222-.152366.4848488-.2112936.7450936-.1635091.261292.0463079.493464.1945721.6453883.4121427.1519242.2175705.2111417.4866048.1646117.7478573l-.86 4.93c-.0055228 0-.01.0044772-.01.01l-.52 2.94c-.3481468 1.960067-1.817632 3.5314366-3.75 4.01l-1.54 8.707z" fill="#bdc3c7"/><path id="Shape" d="m42 18.13c.3257307-.0893041.6622628-.1330533 1-.13 2.209139 0 4 1.790861 4 4s-1.790861 4-4 4c-.3904435.0012363-.7786078-.0595198-1.15-.18l-27.7-.01c-.3696666.1285557-.758628.1928189-1.15.19-2.209139 0-4-1.790861-4-4s1.790861-4 4-4c.3377372-.0030533.6742693.0406959 1 .13z" fill="#f9c795"/><path id="Shape" d="m54.79 55.2c-1.65 4.82-8.29 4.72-10.52.9-.0225332-.0300624-.03947-.063936-.05-.1-.67-1.19-1.13-3.06.45-3.74.1241834-.0494322.2366074-.1243816.33-.22.2065472-.208355.3092336-.4980772.28-.79-.0607996-.6684119.149717-1.3331983.5841818-1.8447758.4344647-.5115775 1.0563833-.8269747 1.7258182-.8752242.1164523-.010002.2335477-.010002.35 0 .3748126.0891921.7559407.1493702 1.14.18.49-.04.66-.43 1.02-.69.4849874-.3670479 1.111147-.4922798 1.7-.34.1539553.0356152.3020923.09285.44.17.4199704.2325009.7322483.6201562.87 1.08.16.51.03 1.07.43 1.53 1.2440048 1.2372203 1.7221155 3.0502163 1.25 4.74z" fill="#fdd7ad"/><path id="Shape" d="m11 52.05v-.05c.0027198-5.1345804 3.8914355-9.4337716 9-9.95h16c5.1085645.5162284 8.9972802 4.8154196 9 9.95v.04l-.78 3.96h-32.45z" fill="#e64c3c"/><path id="Shape" d="m31.55 36.75c-.22 2.09-.44 2.96-.52 5.25h3.97c.34 0 .67.02 1 .05-.03 3.84-3.6 6.95-8 6.95s-7.97-3.11-8-6.95c.33-.03.66-.05 1-.05h3.97c-.08-2.29-.3-3.16-.52-5.25z" fill="#fdd7ad"/><path id="Shape" d="m42 12.5v9.5c.0189299 1.2751067-.0311433 2.5503038-.15 3.82-.45 4.46-2.36 9.74-10.3 10.93-2.3549296.3333333-4.7450704.3333333-7.1 0-7.95-1.19-9.85-6.48-10.3-10.94-.1190204-1.2663424-.1690943-2.53822-.15-3.81v-8.5c9 0 10-5 10-5s5 4 18 4z" fill="#fdd7ad"/><path id="Shape" d="m18 52v4h-2v-4c0-.5522847.4477153-1 1-1s1 .4477153 1 1z" fill="#c03a2b"/><path id="Shape" d="m40 52v4h-2v-4c0-.5522847.4477153-1 1-1s1 .4477153 1 1z" fill="#c03a2b"/><path id="Shape" d="m26 44c0 .5522847-.4477153 1-1 1s-1-.4477153-1-1c.0334068-1.7826478-.0769507-3.5650877-.33-5.33-.08-.6-.16-1.25-.24-2.1.3333333.0666667.6733333.1266667 1.02.18.33.05.67.09 1.02.13.07.59.13 1.08.19 1.54.2551418 1.8486401.3688053 3.7140585.34 5.58z" fill="#f9c795"/><path id="Shape" d="m32.57 36.57c-.08.85-.16 1.5-.24 2.1-.2530493 1.7649123-.3634068 3.5473522-.33 5.33 0 .5522847-.4477153 1-1 1s-1-.4477153-1-1c-.0283029-1.8692528.0853571-3.7379568.34-5.59.06-.46.12-.94.19-1.53.35-.04.69-.08 1.02-.13.35-.05.69-.11 1.02-.18z" fill="#f9c795"/><path id="Shape" d="m34 29c-1.0092521 2.4222051-3.3759445 4-6 4s-4.9907479-1.5777949-6-4z" fill="#fff"/><path id="Shape" d="m29 26h-2c-.5522847 0-1-.4477153-1-1s.4477153-1 1-1h2c.5522847 0 1 .4477153 1 1s-.4477153 1-1 1z" fill="#f9c795"/><path id="Shape" d="m21 24c-1.6568542 0-3-1.3431458-3-3s1.3431458-3 3-3 3 1.3431458 3 3-1.3431458 3-3 3z" fill="#ecf0f1"/><path id="Shape" d="m32 21c0-1.6568542 1.3431458-3 3-3s3 1.3431458 3 3-1.3431458 3-3 3-3-1.3431458-3-3z" fill="#ecf0f1"/><path id="Shape" d="m22 22c-.5522847 0-1-.4477153-1-1s.4477153-1 1-1 1 .4477153 1 1-.4477153 1-1 1z" fill="#464f5d"/><path id="Shape" d="m33 21c0-.5522847.4477153-1 1-1s1 .4477153 1 1-.4477153 1-1 1-1-.4477153-1-1z" fill="#464f5d"/><path id="Shape" d="m24 24h-6c-.5522847 0-1-.4477153-1-1s.4477153-1 1-1h6c.5522847 0 1 .4477153 1 1s-.4477153 1-1 1z" fill="#f9c795"/><path id="Shape" d="m38 24h-6c-.5522847 0-1-.4477153-1-1s.4477153-1 1-1h6c.5522847 0 1 .4477153 1 1s-.4477153 1-1 1z" fill="#f9c795"/><path id="Shape" d="m42 11.5v1.5c-13 0-18-4-18-4s-1 5-10 5v-4.5c0-3.59 5-8.5 14-8.5 3.5827547-.13574207 7.1222617.81975047 10.15 2.74 1.9139372 1.18231488 3.2833166 3.07284923 3.81 5.26.02.08.02.67.03 1.25s.01 1.17.01 1.25z" fill="#a56a43"/><path id="Shape" d="m11.77 56c-.01053.036064-.0274668.0699376-.05.1-2.22 3.82-8.86 3.92-10.52-.9-.47211552-1.6897837.00599523-3.5027797 1.25-4.74.41-.46.27-1.02.43-1.53.13775168-.4598438.4500296-.8474991.87-1.08.13518829-.0754257.279782-.1325906.43-.17.59202756-.1532423 1.2216231-.0280596 1.71.34.36.26.53.65 1.02.69.38405927-.0306298.76518742-.0908079 1.14-.18.11311265-.0100022.22688735-.0100022.34 0 .67122453.0456909 1.29570345.3599892 1.7323004.8718615.4365969.5118722.6484574 1.1781098.5876996 1.8481385-.0323186.2971728.0747616.5925666.29.8.0919582.0901898.2006644.1615282.32.21 1.58.68 1.12 2.55.45 3.74z" fill="#fdd7ad"/><path id="Shape" d="m8.39 48.53c-.11311265-.0100022-.22688735-.0100022-.34 0-.37481258.0891921-.75594073.1493702-1.14.18-.49-.04-.66-.43-1.02-.69-.4883769-.3680596-1.11797244-.4932423-1.71-.34l-1.19-6.75c-.05802008-.2756677-.22358306-.5168138-.46-.67-1.30903371-.9985245-2.17430456-2.470562-2.41-4.1-.53-3 .8-5.73 2.98-6.12s4.37 1.74 4.89 4.73c.33128735 1.6124953.02291274 3.2906269-.86 4.68-.17309165.2243227-.24550049.5103376-.2.79z" fill="#bdc3c7"/></g></g></svg>