<svg width="16" height="16" viewBox="0 0 16 16" fill="none" xmlns="http://www.w3.org/2000/svg">
<g clip-path="url(#clip0)">
<path d="M13.6708 15.044H14.8046L14.0029 14.2424C13.5706 13.8101 13.3007 13.2479 13.2281 12.638C14.3561 11.8978 15.1809 10.9239 15.6224 9.80709C16.0636 8.6911 16.1191 7.46259 15.7827 6.25434C15.3792 4.80455 14.4327 3.48312 13.1176 2.53343C11.6886 1.50147 9.90965 0.955978 7.97301 0.955978C5.53337 0.955978 3.47702 1.65691 2.02636 2.98294C0.71949 4.17757 -0.00025177 5.78896 -0.00025177 7.52032C-0.00025177 8.36147 0.171027 9.17992 0.508796 9.95295C0.858335 10.7529 1.37017 11.4651 2.03008 12.0699C3.48269 13.4011 5.53775 14.1048 7.97304 14.1048C8.87709 14.1048 9.82046 13.9841 10.6627 13.7627C11.4599 14.5805 12.5402 15.044 13.6708 15.044ZM7.97301 1.89518C11.8563 1.89518 14.2391 4.21104 14.8779 6.5062C15.4817 8.67513 14.5917 10.7246 12.4973 11.9885L12.2633 12.1297L12.2705 12.4029C12.2847 12.9437 12.4137 13.4646 12.6444 13.9355C12.0825 13.7453 11.5726 13.4006 11.1733 12.9289L10.9748 12.6943L10.6803 12.7824C9.85405 13.0295 8.89258 13.1656 7.97301 13.1656C3.14013 13.1656 0.938951 10.2393 0.938951 7.52032C0.938951 6.05592 1.55018 4.69069 2.66007 3.67616C3.93466 2.51105 5.77187 1.89518 7.97301 1.89518Z" fill="#667580"/>
</g>
<defs>
<clipPath id="clip0">
<rect width="16" height="16" fill="white"/>
</clipPath>
</defs>
</svg>
