<svg width="16" height="16" viewBox="0 0 16 16" fill="none" xmlns="http://www.w3.org/2000/svg">
<g clip-path="url(#clip0)">
<path d="M6.6332 12.1951L4.74785 14.0804C3.96622 14.8621 2.70043 14.8621 1.91946 14.0806C1.13833 13.2995 1.13833 12.0336 1.9193 11.2526L5.69067 7.48122C6.47164 6.70022 7.73755 6.70022 8.51853 7.48122C8.77887 7.74157 9.201 7.74157 9.46135 7.48122C9.72169 7.22088 9.72169 6.79875 9.46135 6.53841C8.15965 5.23671 6.04955 5.23671 4.74785 6.53841L0.976515 10.3097C-0.32518 11.6114 -0.32518 13.7215 0.976515 15.0232C2.27805 16.3256 4.38832 16.3256 5.6907 15.0232L7.57605 13.1379C7.8364 12.8775 7.8364 12.4554 7.57605 12.1951C7.31571 11.9347 6.89355 11.9347 6.6332 12.1951Z" fill="#667580"/>
<path d="M15.0236 0.975782C13.7219 -0.325912 11.6111 -0.325912 10.3094 0.975782L8.04738 3.23779C7.78703 3.49814 7.78703 3.92027 8.04738 4.18061C8.30772 4.44096 8.72985 4.44096 8.9902 4.18061L11.2522 1.9186C12.0332 1.1376 13.2998 1.1376 14.0808 1.9186C14.8617 2.69957 14.8617 3.96548 14.0808 4.74646L9.93273 8.89451C9.15173 9.67551 7.88585 9.67551 7.10487 8.89451C6.84453 8.63416 6.4224 8.63416 6.16206 8.89451C5.90171 9.15485 5.90171 9.57698 6.16206 9.83732C7.46375 11.139 9.57386 11.139 10.8756 9.83732L15.0236 5.6893C16.3253 4.38761 16.3253 2.27748 15.0236 0.975782Z" fill="#667580"/>
</g>
<defs>
<clipPath id="clip0">
<rect width="16" height="16" fill="white"/>
</clipPath>
</defs>
</svg>
