<svg width="474" height="474" viewBox="0 0 474 474" fill="none" xmlns="http://www.w3.org/2000/svg">
<path d="M163.72 78.099C163.716 112.59 191.681 140.55 226.175 140.55C260.666 140.55 288.627 112.59 288.627 78.099C288.627 43.6045 260.666 15.6438 226.175 15.6438C191.696 15.6828 163.759 43.6201 163.72 78.099V78.099ZM263.728 78.099C263.728 98.8355 246.912 115.652 226.175 115.652C205.435 115.652 188.623 98.8355 188.623 78.099C188.623 57.3586 205.431 40.5463 226.175 40.5463C246.904 40.5697 263.697 57.3703 263.728 78.099V78.099Z" fill="#667580"/>
<path d="M163.72 237.828C163.72 272.322 191.681 300.287 226.175 300.287C260.666 300.287 288.627 272.322 288.627 237.828C288.627 203.337 260.666 175.376 226.175 175.376C191.681 175.376 163.72 203.337 163.72 237.828V237.828ZM263.728 237.828C263.728 258.572 246.912 275.388 226.175 275.388C205.431 275.388 188.623 258.572 188.623 237.828C188.623 217.091 205.431 200.279 226.175 200.279C246.912 200.279 263.728 217.091 263.728 237.828V237.828Z" fill="#667580"/>
<path d="M163.72 397.564C163.72 432.059 191.681 460.02 226.175 460.02C260.666 460.02 288.627 432.059 288.627 397.564C288.627 363.074 260.666 335.113 226.175 335.113C191.696 335.152 163.759 363.089 163.72 397.564V397.564ZM263.728 397.564C263.728 418.305 246.912 435.117 226.175 435.117C205.431 435.117 188.623 418.305 188.623 397.564C188.623 376.824 205.431 360.016 226.175 360.016C246.912 360.016 263.728 376.828 263.728 397.564Z" fill="#667580"/>
</svg>
