<svg width="15" height="15" viewBox="0 0 15 15" fill="none" xmlns="http://www.w3.org/2000/svg">
<g clip-path="url(#clip0)">
<path d="M11.0078 9.68213C11.7459 8.67415 12.1874 7.43602 12.1874 6.0938C12.1874 2.73383 9.45368 6.10352e-05 6.09371 6.10352e-05C2.73374 6.10352e-05 0 2.73383 0 6.0938C0 9.45377 2.73377 12.1875 6.09374 12.1875C7.43596 12.1875 8.6742 11.746 9.68219 11.0078L13.6743 15L15 13.6743C15 13.6743 11.0078 9.68213 11.0078 9.68213V9.68213ZM6.09374 10.3125C3.76738 10.3125 1.87501 8.42015 1.87501 6.0938C1.87501 3.76745 3.76738 1.87507 6.09374 1.87507C8.42009 1.87507 10.3125 3.76745 10.3125 6.0938C10.3125 8.42015 8.42006 10.3125 6.09374 10.3125Z" fill="#667580"/>
</g>
<defs>
<clipPath id="clip0">
<rect width="15" height="15" fill="white"/>
</clipPath>
</defs>
</svg>
