<svg width="16" height="16" viewBox="0 0 16 16" fill="none" xmlns="http://www.w3.org/2000/svg">
<path d="M7.88599 7.70726C8.94482 7.70726 9.86157 7.3275 10.6108 6.57823C11.3599 5.82909 11.7397 4.91247 11.7397 3.85351C11.7397 2.79492 11.36 1.87817 10.6107 1.12878C9.86145 0.37976 8.9447 0 7.88599 0C6.82703 0 5.9104 0.37976 5.16125 1.1289C4.41211 1.87805 4.03223 2.79479 4.03223 3.85351C4.03223 4.91247 4.41211 5.82921 5.16125 6.57836C5.91064 7.32738 6.82739 7.70726 7.88599 7.70726V7.70726ZM5.82434 1.79187C6.39917 1.21704 7.07349 0.93762 7.88599 0.93762C8.69836 0.93762 9.3728 1.21704 9.94775 1.79187C10.5226 2.36682 10.8021 3.04125 10.8021 3.85351C10.8021 4.66601 10.5226 5.34032 9.94775 5.91527C9.3728 6.49022 8.69836 6.76964 7.88599 6.76964C7.07373 6.76964 6.39941 6.4901 5.82434 5.91527C5.24939 5.34044 4.96985 4.66601 4.96985 3.85351C4.96985 3.04125 5.24939 2.36682 5.82434 1.79187Z" fill="#667580"/>
<path d="M14.629 12.3032C14.6074 11.9914 14.5637 11.6514 14.4994 11.2922C14.4344 10.9304 14.3508 10.5884 14.2507 10.2758C14.1472 9.95263 14.0067 9.63354 13.8328 9.32776C13.6525 9.01037 13.4406 8.73401 13.2028 8.50659C12.9541 8.26868 12.6497 8.07739 12.2976 7.93787C11.9468 7.79907 11.558 7.72876 11.1421 7.72876C10.9788 7.72876 10.8208 7.79578 10.5157 7.99438C10.328 8.11682 10.1084 8.25842 9.86328 8.41504C9.65369 8.54858 9.36975 8.6737 9.01904 8.78699C8.67688 8.8977 8.32947 8.95386 7.98645 8.95386C7.64368 8.95386 7.29626 8.8977 6.95386 8.78699C6.60352 8.67383 6.31946 8.5487 6.11023 8.41516C5.86743 8.26001 5.64771 8.11841 5.45715 7.99426C5.15234 7.79565 4.99438 7.72864 4.83105 7.72864C4.41504 7.72864 4.02637 7.79907 3.67566 7.93799C3.32385 8.07727 3.01929 8.26855 2.77039 8.50671C2.53259 8.73425 2.32068 9.0105 2.1405 9.32776C1.9668 9.63354 1.82617 9.95251 1.72266 10.2759C1.62268 10.5885 1.53906 10.9304 1.47412 11.2922C1.40967 11.6509 1.36609 11.9911 1.34448 12.3036C1.32324 12.6091 1.3125 12.9271 1.3125 13.2484C1.3125 14.0836 1.578 14.7598 2.10156 15.2584C2.61865 15.7505 3.30273 16 4.13489 16H11.839C12.6709 16 13.355 15.7505 13.8722 15.2584C14.3959 14.7601 14.6614 14.0837 14.6614 13.2483C14.6613 12.9259 14.6504 12.6079 14.629 12.3032V12.3032ZM13.2257 14.5791C12.884 14.9043 12.4304 15.0624 11.8389 15.0624H4.13489C3.54321 15.0624 3.0896 14.9043 2.74805 14.5792C2.41296 14.2602 2.25012 13.8248 2.25012 13.2484C2.25012 12.9486 2.26001 12.6526 2.27979 12.3684C2.29907 12.0896 2.3385 11.7833 2.39697 11.4579C2.45471 11.1365 2.5282 10.8348 2.6156 10.5618C2.69946 10.2999 2.81384 10.0406 2.95569 9.79089C3.09106 9.55285 3.24683 9.34863 3.4187 9.18408C3.57947 9.03015 3.7821 8.90417 4.02087 8.80969C4.2417 8.72229 4.48987 8.67444 4.75928 8.66723C4.79211 8.68469 4.85059 8.71802 4.94531 8.77978C5.13806 8.90539 5.36023 9.0487 5.60583 9.20556C5.88269 9.38208 6.23938 9.5415 6.66553 9.67907C7.1012 9.81994 7.54553 9.89148 7.98657 9.89148C8.42761 9.89148 8.87207 9.81994 9.3075 9.6792C9.73401 9.54138 10.0906 9.38208 10.3678 9.20532C10.6191 9.04468 10.8351 8.90552 11.0278 8.77978C11.1226 8.71814 11.181 8.68469 11.2139 8.66723C11.4834 8.67444 11.7316 8.72229 11.9525 8.80969C12.1912 8.90417 12.3938 9.03027 12.5546 9.18408C12.7264 9.34851 12.8822 9.55273 13.0176 9.79101C13.1595 10.0406 13.274 10.3 13.3578 10.5616C13.4453 10.8351 13.5189 11.1366 13.5765 11.4578C13.6349 11.7838 13.6744 12.0902 13.6937 12.3685V12.3688C13.7136 12.6518 13.7236 12.9477 13.7238 13.2484C13.7236 13.8249 13.5608 14.2602 13.2257 14.5791V14.5791Z" fill="#667580"/>
</svg>
