<svg width="16" height="12" viewBox="0 0 16 12" fill="none" xmlns="http://www.w3.org/2000/svg">
<path d="M15.9828 8.37658C15.7187 6.88879 14.7314 5.69421 13.4295 5.14013C14.0072 4.65563 14.3762 3.92199 14.3762 3.10241C14.3762 1.64673 13.2127 0.4624 11.7824 0.4624C10.3521 0.4624 9.1885 1.6466 9.1885 3.10241C9.1885 3.92248 9.55789 4.65637 10.1363 5.14098C9.92044 5.23303 9.71133 5.34289 9.51162 5.47094C9.00833 5.79369 8.57864 6.21874 8.24746 6.71654C7.91043 6.49267 7.548 6.30639 7.16592 6.16344C7.98709 5.56982 8.52395 4.59374 8.52395 3.4923C8.52395 1.68725 7.08218 0.218748 5.30996 0.218748C3.53774 0.218748 2.09597 1.68725 2.09597 3.4923C2.09597 4.59374 2.63284 5.56982 3.454 6.16344C1.70644 6.81725 0.366112 8.37206 0.0184561 10.3296C-0.0457529 10.6915 0.0528799 11.0607 0.288842 11.3424C0.522607 11.6213 0.863671 11.7812 1.22463 11.7812H9.39529C9.75625 11.7812 10.0973 11.6213 10.3311 11.3424C10.5672 11.0607 10.6657 10.6915 10.6015 10.3296C10.5586 10.0881 10.5005 9.85289 10.4286 9.62474H14.9447C15.2555 9.62474 15.5492 9.48705 15.7504 9.24706C15.9533 9.00499 16.038 8.68761 15.9828 8.37658ZM10.126 3.10241C10.126 2.16357 10.869 1.3999 11.7824 1.3999C12.6957 1.3999 13.4387 2.16357 13.4387 3.10241C13.4387 4.04113 12.6957 4.8048 11.7824 4.8048C10.869 4.8048 10.126 4.04113 10.126 3.10241ZM3.03347 3.4923C3.03347 2.20422 4.05471 1.15625 5.30996 1.15625C6.56521 1.15625 7.58657 2.20422 7.58657 3.4923C7.58657 4.78039 6.56521 5.82836 5.30996 5.82836C4.05471 5.82836 3.03347 4.78039 3.03347 3.4923ZM9.61257 10.7402C9.5801 10.7789 9.50881 10.8437 9.39529 10.8437H1.22463C1.11111 10.8437 1.03982 10.7789 1.00735 10.7402C0.973657 10.6999 0.92019 10.6142 0.941552 10.4934C1.3251 8.33361 3.16226 6.76586 5.30996 6.76586C7.45767 6.76586 9.29495 8.33361 9.67837 10.4934C9.69985 10.6142 9.64639 10.6999 9.61257 10.7402ZM15.0319 8.64489C15.0186 8.66076 14.9897 8.68725 14.9449 8.68725H10.0346C9.75723 8.16759 9.40103 7.70141 8.98318 7.3037C9.59378 6.33239 10.6374 5.7423 11.7824 5.7423C13.3936 5.7423 14.7718 6.91906 15.0597 8.54052C15.0688 8.59166 15.0462 8.62792 15.0319 8.64489Z" fill="#3BB9E3"/>
</svg>
