<svg width="16" height="16" viewBox="0 0 16 16" fill="none" xmlns="http://www.w3.org/2000/svg">
<path d="M13.311 2.78191C12.0895 1.01409 10.1537 0 8.00019 0C5.84672 0 3.91087 1.01409 2.6894 2.78191C1.47393 4.54078 1.19328 6.76756 1.93715 8.73491C2.13612 9.27216 2.4524 9.79412 2.87497 10.2832L7.57428 15.8031C7.68056 15.928 7.83628 16 8.00019 16C8.16409 16 8.31981 15.928 8.42609 15.8031L13.1241 10.2847C13.5485 9.79281 13.8644 9.27141 14.0617 8.73847C14.8071 6.76756 14.5264 4.54078 13.311 2.78191ZM13.0141 8.34666C12.8619 8.75784 12.6135 9.16438 12.2762 9.55541C12.2752 9.55634 12.2743 9.55728 12.2736 9.55841L8.00019 14.5777L3.72418 9.55525C3.38703 9.16456 3.13862 8.75806 2.98497 8.34294C2.36978 6.71591 2.60325 4.87478 3.60968 3.41819C4.61928 1.95694 6.21965 1.11888 8.00019 1.11888C9.78069 1.11888 11.3809 1.95691 12.3905 3.41819C13.3971 4.87478 13.6308 6.71591 13.0141 8.34666Z" fill="#667580"/>
<path d="M8.00015 3.31935C6.27278 3.31935 4.86728 4.72466 4.86728 6.45223C4.86728 8.17979 6.27259 9.5851 8.00015 9.5851C9.72772 9.5851 11.133 8.17979 11.133 6.45223C11.133 4.72485 9.72753 3.31935 8.00015 3.31935ZM8.00015 8.4662C6.88965 8.4662 5.98615 7.56269 5.98615 6.45219C5.98615 5.34169 6.88965 4.43819 8.00015 4.43819C9.11065 4.43819 10.0142 5.34169 10.0142 6.45219C10.0142 7.56269 9.11065 8.4662 8.00015 8.4662Z" fill="#667580"/>
</svg>
