<svg width="16" height="16" viewBox="0 0 16 16" fill="none" xmlns="http://www.w3.org/2000/svg">
<path d="M8.00495 14.7391C7.64349 14.7391 7.27762 14.7092 6.9168 14.6508C5.14526 14.3608 3.5928 13.3992 2.54504 11.9425L3.38393 11.3388C4.27103 12.5717 5.58458 13.3853 7.08314 13.6303C8.58234 13.8764 10.0964 13.5145 11.3195 12.6353C12.5126 11.7771 13.3179 10.5091 13.5894 9.06467L14.6051 9.25549C14.2857 10.9619 13.333 12.46 11.9232 13.4742C10.7726 14.3023 9.41769 14.7391 8.00495 14.7391V14.7391Z" fill="#667580"/>
<path d="M2.38901 7.10244L1.36548 6.95667C1.65802 5.16443 2.62009 3.6121 4.07675 2.56421C5.52155 1.52415 7.31178 1.09972 9.08383 1.38773C10.7944 1.6674 12.3115 2.58188 13.3568 3.96207L12.5328 4.58603C11.6483 3.41774 10.3648 2.64435 8.91736 2.4081C7.4183 2.16263 5.90358 2.52345 4.68052 3.40323C3.44762 4.28982 2.63397 5.60337 2.38901 7.10244V7.10244Z" fill="#667580"/>
<path d="M15.1174 10.2346L13.9915 9.10922L12.8661 10.2346C12.6646 10.4362 12.3368 10.4362 12.1353 10.2346C11.9336 10.0329 11.9336 9.70517 12.1353 9.50361L13.9915 7.64725L15.8484 9.50361C16.0506 9.70517 16.0506 10.0329 15.8484 10.2346C15.6463 10.4362 15.3191 10.4362 15.1174 10.2346Z" fill="#667580"/>
<path d="M2.00938 8.38076L0.152518 6.52451C-0.0495372 6.32284 -0.0495372 5.99508 0.152518 5.79353C0.354194 5.59198 0.681319 5.59198 0.8835 5.79353L2.00938 6.91891L3.13475 5.79353C3.3363 5.59198 3.66406 5.59198 3.86574 5.79353C4.06729 5.99508 4.06729 6.32284 3.86574 6.52451L2.00938 8.38076Z" fill="#667580"/>
</svg>
